<svg xmlns="http://www.w3.org/2000/svg" width="24" height="24" viewBox="0 0 24 24">
    <g fill="none" fill-rule="evenodd">
        <path d="M0 0h24v24H0z"/>
        <path fill="#373737" fill-rule="nonzero" d="M3 4c-.55 0-1 .45-1 1v12c0 .55.45 1 1 1h1a3 3 0 0 1 6 0h4a3 3 0 0 1 6 0h1c.55 0 1-.45 1-1v-4.25l-1.844-3.656A1.982 1.982 0 0 0 18.375 8H14V5c0-.55-.45-1-1-1H3zm13 6h2.375l1.5 3H16v-3zm-9 6a1.999 1.999 0 1 0 0 4 1.999 1.999 0 1 0 0-4zm10 0a1.999 1.999 0 1 0 0 4 1.999 1.999 0 1 0 0-4z"/>
    </g>
</svg>
