<svg xmlns="http://www.w3.org/2000/svg" width="24" height="24" viewBox="0 0 24 24">
    <g fill="none" fill-rule="evenodd">
        <path d="M0 0h24v24H0z"/>
        <path fill="#FFF" fill-rule="nonzero" d="M12 5c-1.3 0-2.395.602-3.094 1.5C8.305 6.2 7.7 6 7 6 5.102 6 3.492 7.387 3.094 9.188 3.394 9.085 3.699 9 4 9c1.2 0 2.313.71 2.813 1.813l.78 1.593C8.696 12.305 10.7 12 12 12c1.3 0 3.305.305 4.406.406l.782-1.594A3.105 3.105 0 0 1 20 9c.3 0 .605.086.906.188C20.508 7.386 18.898 6 17 6c-.7 0-1.305.2-1.906.5A3.877 3.877 0 0 0 12 5zm-8 5a1.999 1.999 0 0 0-.344 3.969l1.156 3.437L4 19h2l.5-1h11l.5 1h2l-.813-1.594 1.157-3.437A1.998 1.998 0 0 0 20 10c-.863 0-1.594.547-1.875 1.313h-.031L17 13.5s-3.3-.5-5-.5c-1.7 0-5 .5-5 .5l-1.094-2.313-.062.032A2 2 0 0 0 4 10z"/>
    </g>
</svg>
